<?xml version="1.0" standalone="no"?>
<!DOCTYPE svg PUBLIC "-//W3C//DTD SVG 20010904//EN"
 "http://www.w3.org/TR/2001/REC-SVG-20010904/DTD/svg10.dtd">
<svg version="1.0" xmlns="http://www.w3.org/2000/svg"
 width="200.000000pt" height="200.000000pt" viewBox="0 0 200.000000 200.000000"
 preserveAspectRatio="xMidYMid meet">

<g transform="translate(0.000000,200.000000) scale(0.100000,-0.100000)"
fill="#000000" stroke="none">
<path d="M1610 1952 c-20 -9 -66 -39 -104 -67 -38 -27 -104 -76 -147 -107
-108 -79 -138 -93 -264 -118 -153 -31 -203 -59 -356 -196 -94 -85 -190 -135
-327 -168 -104 -26 -220 -78 -229 -103 -16 -43 114 -196 207 -243 22 -11 40
-23 40 -25 0 -3 -11 -22 -24 -43 -83 -133 -261 -560 -241 -580 2 -2 9 16 15
39 26 98 126 215 193 226 47 7 70 -12 106 -87 23 -49 25 -67 25 -170 0 -105
-6 -147 -40 -257 -19 -62 41 70 67 147 26 76 32 112 32 180 1 93 -9 127 -77
275 -38 83 -41 97 -41 175 l0 85 65 7 c75 8 134 27 207 68 63 36 63 36 63 9 0
-12 17 -53 37 -93 29 -55 64 -98 158 -191 127 -126 151 -162 172 -260 l12 -60
-2 63 c-3 55 -12 80 -73 199 -66 131 -69 140 -68 204 2 81 29 145 109 259 82
117 88 133 95 305 4 83 10 159 14 170 4 11 -6 -7 -22 -40 -28 -58 -56 -91 -97
-113 -18 -11 -18 -11 8 -12 51 0 67 -16 67 -67 0 -75 -101 -233 -150 -233 -52
0 -72 93 -46 213 19 84 46 131 93 162 17 12 50 38 74 59 l44 37 -70 -31 c-39
-18 -78 -40 -88 -49 -10 -10 -38 -76 -62 -147 -41 -117 -45 -138 -45 -224 0
-109 -13 -165 -40 -180 -29 -15 -45 -4 -71 52 -30 64 -33 189 -6 253 l17 40
-20 -25 c-30 -37 -50 -115 -50 -192 0 -66 -1 -68 -25 -68 -37 0 -84 22 -141
65 -61 46 -89 58 -127 49 l-30 -6 29 -13 c41 -18 65 -48 74 -94 8 -43 0 -55
-48 -80 -55 -29 -192 59 -228 145 -20 48 -10 86 31 122 44 39 121 64 203 65
76 1 100 -9 159 -66 l42 -40 -16 44 c-17 51 -12 104 17 164 23 47 111 141 141
150 29 9 56 -18 73 -74 10 -34 14 -40 15 -21 2 38 36 105 62 124 13 9 41 16
62 16 24 0 36 4 32 10 -12 19 24 59 62 69 57 16 83 14 83 -6 0 -12 6 -8 19 13
23 37 81 84 104 84 9 0 21 -9 27 -20 8 -15 2 -42 -30 -127 -45 -118 -59 -190
-42 -219 10 -16 11 -12 12 26 1 54 27 117 81 188 49 64 73 118 88 193 12 58
40 111 41 77 0 -25 18 -31 51 -18 24 10 28 17 23 36 -5 18 -2 24 11 24 11 0
16 -7 13 -23 -1 -13 5 -32 15 -41 9 -10 17 -30 17 -46 0 -46 -94 -265 -140
-327 -49 -65 -80 -145 -79 -205 0 -40 1 -41 12 -19 6 14 59 62 117 108 117 93
144 101 169 48 12 -24 12 -42 4 -92 -20 -116 -57 -169 -211 -301 -64 -55 -106
-115 -117 -167 -5 -26 -4 -24 13 10 29 61 71 107 96 103 20 -3 21 -7 19 -158
-1 -148 -1 -151 7 -55 14 182 47 267 170 440 44 62 87 130 96 151 22 52 16
159 -11 196 -11 15 -23 28 -27 28 -4 0 -30 -22 -58 -50 -28 -27 -53 -50 -56
-50 -12 0 0 63 27 143 41 121 49 199 22 235 -11 15 -23 41 -27 57 -8 33 -33
75 -44 75 -4 0 -23 -8 -42 -18z"/>
<path d="M1351 1028 c-24 -29 -55 -75 -68 -103 -22 -43 -27 -47 -33 -30 -7 19
-8 18 -14 -5 -16 -58 35 -307 66 -327 7 -4 9 0 5 10 -52 136 -35 305 43 425
49 76 52 82 47 82 -2 0 -23 -24 -46 -52z"/>
</g>
</svg>
